<svg id="Layer_1" enable-background="new 0 0 512 512" height="512" viewBox="0 0 512 512" width="512" xmlns="http://www.w3.org/2000/svg"><path d="m244.998 11.002c-56.096 0-107.777 18.866-149.075 50.581-23.301 20.421-83.551 83.904-83.551 194.417s60.25 173.996 83.551 194.417c41.299 31.715 92.98 50.581 149.075 50.581 135.309 0 244.998-109.689 244.998-244.998s-109.69-244.998-244.998-244.998z" fill="#4fabf7"/><path d="m511.553 389.07-17.099-45.347c-1.336-3.544-5.271-5.351-8.827-4.049-17.703 6.482-69.821 24.609-126.993 35.441-16.106 24.169-36.962 44.909-61.225 60.884 53.95-1.847 134.808-15.885 209.656-37.879 3.843-1.128 5.901-5.302 4.488-9.05z" fill="#222d5b"/><path d="m390.541 425.292c-7.375-3.46-6.082-9.185-4.631-12.325.596-1.289.131-2.814-1.07-3.571-11.496-7.245-8.333-16.876-5.927-21.373.712-1.331.27-2.975-1.015-3.769-5.178-3.199-4.137-8.013-2.994-10.69.247-.58.29-1.203.159-1.783-5.412 1.168-10.895 2.286-16.428 3.334-16.106 24.169-36.962 44.909-61.225 60.884 26.014-.889 58.293-4.622 93.131-10.707z" fill="#0e1b41"/><path d="m498.381 354.137c-50.416 16.602-105.509 30.135-152.069 37.66-9.01 11.06-19.096 21.207-30.095 30.29 54.352-5.674 125.662-21.879 191.343-43.608z" fill="#2d3c6b"/><path d="m384.839 409.397c-11.496-7.245-8.333-16.876-5.927-21.373.384-.717.422-1.522.184-2.239-11.258 2.284-22.247 4.31-32.785 6.013-9.01 11.06-19.096 21.207-30.095 30.29 21.149-2.208 44.872-6.017 69.825-11.118-.193-.633-.606-1.198-1.202-1.573z" fill="#222d5b"/><path d="m237.503 382.204c-17.186 7.53-36.167 11.721-56.131 11.721-18.862 0-36.848-3.738-53.27-10.501l-3.241.696c.017.014 27.835 22.11 87.453 35.49.315-.059.632-.111.947-.172 17.631-3.436 27.971-20.771 24.242-37.234z" fill="#0e1b41"/><path d="m105.63 361.021 9.696-15.928c6.799-11.169 5.732-25.292-2.328-35.588-5.003-6.39-9.113-13.506-12.151-21.046-4.886-12.128-16.585-20.114-29.656-19.81l-18.641.433c-3.684.086-7.163.808-10.369 2.029 4.309 40.142 25.583 75.2 56.511 97.872 2.659-2.164 5.023-4.815 6.938-7.962z" fill="#222d5b"/><path d="m310.194 269.083-18.642-.433c-13.072-.304-24.77 7.682-29.656 19.81-3.037 7.539-7.148 14.655-12.151 21.046-8.061 10.295-9.127 24.419-2.328 35.588l9.696 15.928c1.915 3.147 4.28 5.798 6.939 7.962 30.928-22.671 52.202-57.729 56.511-97.872-3.205-1.221-6.685-1.943-10.369-2.029z" fill="#2d3c6b"/><g fill="#222d5b"><path d="m249.379 310.014c-7.709 10.249-8.65 24.091-1.96 35.08l9.696 15.928c1.916 3.147 4.28 5.798 6.939 7.962 10.584-7.759 20.037-16.97 28.067-27.337-41.502-.002-42.742-31.633-42.742-31.633z"/><path d="m225.507 357.744c-6.273-11.472-19.038-17.611-31.985-15.777-8.048 1.139-16.266 1.138-24.301 0-12.946-1.833-25.711 4.305-31.984 15.777l-8.946 16.361c-1.772 3.24-2.887 6.622-3.431 10.016 17.285 7.635 36.401 11.884 56.511 11.884 20.111 0 39.227-4.249 56.512-11.884-.544-3.394-1.659-6.776-3.431-10.017z"/><path d="m52.55 242.916 18.642.433c13.072.304 24.77-7.682 29.655-19.81 3.033-7.528 7.14-14.645 12.151-21.045 8.061-10.295 9.128-24.419 2.329-35.588l-9.696-15.927c-1.915-3.146-4.279-5.797-6.938-7.962-30.928 22.671-52.202 57.729-56.511 97.871 3.205 1.22 6.684 1.942 10.368 2.028z"/></g><path d="m257.114 150.978-9.696 15.927c-6.799 11.169-5.732 25.293 2.329 35.588 5.01 6.4 9.118 13.518 12.151 21.045 4.886 12.128 16.584 20.114 29.655 19.81l18.642-.433c3.684-.086 7.163-.808 10.369-2.029-4.309-40.142-25.583-75.2-56.511-97.871-2.66 2.166-5.024 4.817-6.939 7.963z" fill="#2d3c6b"/><path d="m137.237 154.255c6.273 11.472 19.038 17.61 31.984 15.777 8.036-1.138 16.253-1.139 24.301 0 12.946 1.833 25.712-4.305 31.985-15.777l8.945-16.361c1.772-3.24 2.887-6.622 3.431-10.016-17.285-7.635-36.401-11.884-56.511-11.884-20.111 0-39.226 4.249-56.511 11.884.544 3.394 1.659 6.775 3.431 10.016z" fill="#2d3c6b"/><path d="m124.861 127.879c.544 3.394 1.659 6.775 3.431 10.016l8.946 16.361c6.18 11.302 18.661 17.41 31.408 15.837-20.971-25.401-5.918-52.85-5.911-52.864-13.306 1.772-26.021 5.414-37.874 10.65z" fill="#222d5b"/><path d="m181.372 40.627c-26.513 0-51.916 4.827-75.393 13.63-28.452 19.644-52.556 45.138-70.545 74.762 35.508-40.757 87.765-66.559 145.938-66.559 106.718 0 193.54 86.821 193.54 193.54s-86.821 193.54-193.54 193.54c-58.173 0-110.43-25.803-145.938-66.56 17.989 29.625 42.092 55.119 70.545 74.763 23.477 8.802 48.88 13.63 75.393 13.63 118.757 0 215.373-96.616 215.373-215.373s-96.617-215.373-215.373-215.373z" fill="#e9efff"/><path d="m327.25 389.777c-.305-1.61-1.28-2.964-2.606-3.792-35.432 39.018-86.54 63.555-143.272 63.555-58.173 0-110.43-25.803-145.938-66.56 17.989 29.625 42.092 55.119 70.545 74.763 23.477 8.802 48.88 13.63 75.393 13.63 63.031 0 119.824-27.219 159.245-70.518-.849-.798-1.916-1.367-3.117-1.579-7.225-1.279-9.563-5.865-10.25-9.499z" fill="#dae2fe"/><path d="m145.921 65.731c.132-1.695-.478-3.417-1.743-4.682-6.143-6.14-2.788-13.559-1.308-16.134.199-.346.445-.658.713-.953-12.969 2.308-25.543 5.773-37.605 10.295-28.452 19.644-52.556 45.138-70.545 74.762 28.119-32.274 66.745-55.155 110.488-63.288z" fill="#dae2fe"/><path d="m181.372 61.421c-56.372 0-107.213 24.106-142.782 62.54-24.426 38.104-38.59 83.418-38.59 132.039s14.164 93.934 38.59 132.039c35.569 38.435 86.41 62.54 142.782 62.54 107.291 0 194.579-87.287 194.579-194.579s-87.289-194.579-194.579-194.579zm-66.046 283.672-9.696 15.928c-10.899 17.904-36.098 20.125-49.858 4.314-14.052-16.147-24.946-35.033-31.888-55.232-6.813-19.822 7.711-40.534 28.665-41.021l18.641-.433c13.072-.304 24.77 7.682 29.656 19.811 3.037 7.539 7.148 14.655 12.151 21.046 8.061 10.295 9.128 24.419 2.329 35.587zm-2.328-142.6c-5.011 6.4-9.118 13.518-12.151 21.046-4.886 12.128-16.584 20.114-29.656 19.81l-18.642-.433c-20.954-.487-35.478-21.199-28.665-41.021 6.958-20.243 17.867-39.12 31.889-55.232 13.76-15.811 38.959-13.589 49.857 4.314l9.696 15.927c6.799 11.17 5.732 25.294-2.328 35.589zm100.262 216.946c-20.964 4.087-42.766 4.096-63.776 0-20.572-4.011-31.248-26.945-21.192-45.335l8.946-16.361c6.273-11.472 19.038-17.61 31.984-15.777 8.036 1.138 16.254 1.139 24.301 0 12.946-1.833 25.711 4.305 31.984 15.777l8.945 16.36c10.056 18.392-.62 41.326-21.192 45.336zm21.192-281.545-8.945 16.361c-6.273 11.472-19.038 17.611-31.984 15.778-8.048-1.14-16.266-1.138-24.301 0-12.946 1.833-25.711-4.305-31.984-15.777l-8.946-16.361c-10.055-18.39.62-41.324 21.192-45.335 21.01-4.096 42.812-4.087 63.776 0 20.572 4.01 31.248 26.945 21.192 45.334zm104.407 172.21c-6.942 20.199-17.836 39.085-31.888 55.232-13.76 15.811-38.959 13.589-49.857-4.315l-9.696-15.928c-6.799-11.169-5.732-25.293 2.328-35.588 5.003-6.39 9.113-13.506 12.151-21.046 4.886-12.128 16.584-20.114 29.656-19.81l18.641.433c20.954.488 35.478 21.2 28.665 41.022zm-28.665-67.188-18.642.433c-13.072.303-24.77-7.682-29.656-19.81-3.032-7.528-7.14-14.645-12.151-21.045-8.061-10.295-9.127-24.419-2.328-35.588l9.696-15.927c10.898-17.903 36.098-20.125 49.857-4.314 14.022 16.112 24.931 34.989 31.888 55.232 6.814 19.82-7.71 40.532-28.664 41.019z" fill="#dae2fe"/><path d="m321.907 385.119c-14.937-.782-15.758-11.957-15.322-17.157.058-.686-.008-1.366-.18-2.015-13.873 15.124-38.539 12.738-49.291-4.926l-9.696-15.928c-6.689-10.989-5.749-24.831 1.96-35.08-.699-.22-1.44-.316-2.189-.267-14.47.958-19.024-5.999-20.441-10.973-.734-2.575-3.189-4.234-5.866-4.154-11.166.335-13.727-6.77-14.214-11.416-.243-2.316-1.866-4.26-4.117-4.855-36.601-9.68-28.002-40.565-23.255-52.245 1.025-2.523.182-5.418-2.044-6.988-8.801-6.211-7.619-13.219-5.611-17.479 1.12-2.375.444-5.202-1.518-6.947-9.954-8.854-4.893-18.939-2.213-22.916.348-.517.578-1.09.733-1.683-12.747 1.573-25.228-4.535-31.408-15.837l-8.946-16.361c-10.055-18.39.62-41.324 21.192-45.335 1.372-.267 2.747-.515 4.125-.748-.475-.696-1.091-1.294-1.824-1.741-12.159-7.415-9.521-16.753-6.557-22.002.601-1.065.804-2.25.68-3.401-42.044 7.777-79.391 29.115-107.319 59.293-24.422 38.107-38.586 83.421-38.586 132.042s14.163 93.934 38.589 132.039c35.569 38.435 86.41 62.541 142.782 62.541 57.067 0 108.474-24.696 144.098-63.96-.958-.873-2.202-1.43-3.562-1.501zm-206.581-40.026-9.696 15.928c-10.899 17.904-36.098 20.125-49.858 4.314-14.052-16.147-24.946-35.033-31.888-55.232-6.813-19.822 7.711-40.534 28.665-41.021l18.642-.433c13.071-.304 24.77 7.682 29.656 19.811 3.037 7.539 7.148 14.655 12.151 21.046 8.06 10.295 9.127 24.419 2.328 35.587zm-2.328-142.6c-5.011 6.4-9.118 13.518-12.151 21.046-4.886 12.128-16.584 20.114-29.656 19.81l-18.642-.433c-20.954-.487-35.478-21.199-28.665-41.021 6.958-20.243 17.867-39.12 31.888-55.232 13.76-15.811 38.959-13.589 49.857 4.314l9.696 15.927c6.8 11.17 5.733 25.294-2.327 35.589zm100.262 216.946c-20.964 4.087-42.766 4.096-63.776 0-20.573-4.011-31.248-26.945-21.192-45.335l8.946-16.361c6.273-11.472 19.038-17.61 31.984-15.777 8.035 1.138 16.253 1.139 24.301 0 12.946-1.833 25.711 4.305 31.984 15.778l8.946 16.36c10.055 18.391-.621 41.325-21.193 45.335z" fill="#bec8f7"/><ellipse cx="181.372" cy="256" fill="#bec8f7" rx="58.75" ry="58.75" transform="matrix(.987 -.159 .159 .987 -38.445 32.142)"/><path d="m224.593 295.742c-1.049-.75-2.35-1.162-3.71-1.122-11.166.335-13.727-6.77-14.214-11.416-.243-2.316-1.866-4.26-4.117-4.855-36.601-9.68-28.002-40.565-23.255-52.245 1.025-2.523.182-5.418-2.044-6.988-8.801-6.211-7.619-13.219-5.611-17.479.549-1.165.662-2.439.407-3.641-27.979 4.481-49.428 28.78-49.428 58.003 0 32.395 26.355 58.75 58.75 58.75 17.081.001 32.478-7.331 43.222-19.007z" fill="#acbbef"/><ellipse cx="181.372" cy="256" fill="#2d3c6b" rx="34.428" ry="34.428" transform="matrix(.965 -.262 .262 .965 -60.64 56.345)"/><path d="m181.372 290.428c9.435 0 17.993-3.817 24.218-9.985-.734-1.001-1.782-1.762-3.037-2.094-36.601-9.68-28.002-40.565-23.255-52.245.6-1.475.544-3.071-.037-4.462-18.003 1.095-32.317 16.083-32.317 34.357 0 18.985 15.444 34.429 34.428 34.429z" fill="#222d5b"/></svg>